<svg width="24" height="24" viewBox="0 0 24 24" fill="none" xmlns="http://www.w3.org/2000/svg">
<path d="M23.3778 0.622238C22.9315 0.175894 22.3147 -0.0477466 21.686 0.0085503C20.08 0.152316 17.1896 0.578644 14.3289 1.30685C10.9167 2.17539 8.60834 3.19403 7.46787 4.33455C5.84473 5.95769 4.70398 8.40349 4.41636 10.877C4.26748 12.1573 4.346 13.3724 4.6497 14.4885C4.82656 15.1385 5.07626 15.7366 5.39497 16.2796C4.95364 16.7574 4.54325 17.2171 4.1683 17.6486C1.68115 20.5112 0.188373 22.7404 0.12603 22.8339C-0.103705 23.1785 -0.0106111 23.6442 0.334061 23.874C0.461936 23.9592 0.606451 24 0.749373 24C0.991717 24 1.22961 23.8827 1.37412 23.666C1.38884 23.6439 2.87562 21.4235 5.30061 18.6325C5.61392 18.2719 5.95297 17.8909 6.31395 17.4963C6.34494 17.5286 6.37555 17.5612 6.40723 17.5929C7.2394 18.425 8.28383 19.0164 9.51148 19.3504C10.2617 19.5545 11.0564 19.6569 11.8859 19.6569C12.2904 19.6569 12.7033 19.6325 13.123 19.5837C15.5966 19.2961 18.0424 18.1554 19.6655 16.5322C20.806 15.3918 21.8247 13.0834 22.6932 9.67122C23.4215 6.81044 23.8477 3.92003 23.9915 2.3141C24.0477 1.68518 23.8241 1.06853 23.3778 0.622238V0.622238ZM22.4974 2.18022C22.1751 5.77975 20.7025 13.3737 18.6048 15.4714C15.8424 18.2338 10.2587 19.3229 7.46787 16.5321C7.42503 16.4893 7.38312 16.4457 7.34211 16.4016C9.43414 14.232 12.095 11.8233 15.0198 10.0126C15.372 9.7946 15.4808 9.33236 15.2628 8.98014C15.0448 8.62802 14.5826 8.51913 14.2303 8.73724C11.2844 10.5609 8.6089 12.9531 6.48101 15.1352C5.03473 12.1577 6.1729 7.7508 8.52851 5.39519C10.6262 3.29753 18.2202 1.82486 21.8198 1.5026C21.8402 1.50077 21.86 1.49988 21.8793 1.49988C22.0993 1.49988 22.2463 1.61205 22.3172 1.68288C22.3942 1.75994 22.5201 1.92705 22.4974 2.18022V2.18022Z" fill="#FBB659"/>
</svg>
