<svg width="24" height="24" viewBox="0 0 24 24" fill="none" xmlns="http://www.w3.org/2000/svg">
<path d="M14 17.9976C13.6594 17.9976 13.3213 18.0554 13 18.1686V17.9976C13 17.7324 13.1054 17.478 13.2929 17.2905C13.4805 17.103 13.7348 16.9976 14 16.9976C14.1421 16.9967 14.2827 17.0265 14.4122 17.085C14.5416 17.1435 14.6569 17.2294 14.75 17.3366C14.8358 17.4387 14.9411 17.5227 15.0597 17.5835C15.1784 17.6444 15.308 17.6809 15.441 17.6908C15.574 17.7008 15.7076 17.6841 15.834 17.6417C15.9604 17.5993 16.0771 17.532 16.1771 17.4439C16.2772 17.3557 16.3586 17.2484 16.4165 17.1283C16.4745 17.0082 16.5079 16.8778 16.5147 16.7446C16.5215 16.6114 16.5015 16.4782 16.4561 16.3529C16.4107 16.2275 16.3406 16.1125 16.25 16.0146C15.8471 15.5577 15.3145 15.2343 14.7232 15.0874C14.1319 14.9405 13.5099 14.9772 12.94 15.1924C12.37 15.4077 11.8792 15.7914 11.5326 16.2925C11.1861 16.7936 11.0003 17.3884 11 17.9976V20.9976C11.0003 21.6489 11.2124 22.2825 11.6045 22.8026C11.9966 23.3227 12.5474 23.701 13.1735 23.8805C13.7996 24.06 14.4671 24.0308 15.0752 23.7973C15.6833 23.5639 16.1988 23.1389 16.544 22.5866C16.8225 22.1383 16.98 21.6254 17.0012 21.0981C17.0224 20.5707 16.9066 20.0469 16.665 19.5776C16.4118 19.0924 16.0282 18.6875 15.5574 18.4084C15.0866 18.1293 14.5473 17.987 14 17.9976V17.9976ZM14.849 21.5266C14.757 21.6743 14.6279 21.7955 14.4746 21.878C14.3214 21.9606 14.1492 22.0017 13.9752 21.9973C13.8011 21.9929 13.6313 21.9431 13.4824 21.8529C13.3334 21.7628 13.2107 21.6353 13.1262 21.4831C13.0416 21.3309 12.9983 21.1592 13.0005 20.9852C13.0027 20.8111 13.0502 20.6406 13.1385 20.4905C13.2268 20.3405 13.3527 20.2161 13.5038 20.1296C13.6549 20.0432 13.826 19.9977 14 19.9976C14.172 19.9882 14.3433 20.0256 14.4958 20.1057C14.6483 20.1858 14.7762 20.3057 14.866 20.4526C14.9583 20.6172 15.0054 20.8032 15.0024 20.9919C14.9994 21.1806 14.9465 21.365 14.849 21.5266V21.5266ZM21 14.9976C20.2044 14.9976 19.4413 15.3137 18.8787 15.8763C18.3161 16.4389 18 17.202 18 17.9976V20.9976C18 21.7933 18.3161 22.5563 18.8787 23.1189C19.4413 23.6815 20.2044 23.9976 21 23.9976C21.7957 23.9976 22.5588 23.6815 23.1214 23.1189C23.684 22.5563 24 21.7933 24 20.9976V17.9976C24 17.202 23.684 16.4389 23.1214 15.8763C22.5588 15.3137 21.7957 14.9976 21 14.9976ZM22 20.9976C22 21.2628 21.8947 21.5172 21.7072 21.7047C21.5196 21.8923 21.2653 21.9976 21 21.9976C20.7348 21.9976 20.4805 21.8923 20.2929 21.7047C20.1054 21.5172 20 21.2628 20 20.9976V17.9976C20 17.7324 20.1054 17.478 20.2929 17.2905C20.4805 17.103 20.7348 16.9976 21 16.9976C21.2653 16.9976 21.5196 17.103 21.7072 17.2905C21.8947 17.478 22 17.7324 22 17.9976V20.9976ZM12 12.9976H8.00005C7.73483 12.9976 7.48048 12.8923 7.29294 12.7047C7.1054 12.5172 7.00005 12.2628 7.00005 11.9976C7.00005 11.7324 7.1054 11.478 7.29294 11.2905C7.48048 11.103 7.73483 10.9976 8.00005 10.9976H11V6.99761C11 6.73239 11.1054 6.47804 11.2929 6.2905C11.4805 6.10296 11.7348 5.99761 12 5.99761C12.2653 5.99761 12.5196 6.10296 12.7072 6.2905C12.8947 6.47804 13 6.73239 13 6.99761V11.9976C13 12.2628 12.8947 12.5172 12.7072 12.7047C12.5196 12.8923 12.2653 12.9976 12 12.9976ZM24 2.99761V5.99761C24 6.79326 23.684 7.55632 23.1214 8.11893C22.5588 8.68154 21.7957 8.99761 21 8.99761H18C17.7348 8.99761 17.4805 8.89225 17.2929 8.70471C17.1054 8.51718 17 8.26282 17 7.99761C17 7.73239 17.1054 7.47804 17.2929 7.2905C17.4805 7.10296 17.7348 6.99761 18 6.99761H20.637C19.8369 5.61674 18.7176 4.44765 17.3728 3.5882C16.028 2.72876 14.4969 2.20397 12.9077 2.05777C11.3185 1.91158 9.71733 2.14823 8.23833 2.74791C6.75933 3.3476 5.44552 4.29286 4.40687 5.50458C3.36822 6.7163 2.63496 8.1592 2.26847 9.7125C1.90199 11.2658 1.91295 12.8843 2.30043 14.4325C2.68791 15.9807 3.44064 17.4135 4.49561 18.6111C5.55057 19.8086 6.87706 20.736 8.36405 21.3156C8.61123 21.4121 8.80994 21.6029 8.91646 21.846C9.02298 22.089 9.02858 22.3644 8.93205 22.6116C8.83551 22.8588 8.64473 23.0575 8.40168 23.164C8.15864 23.2705 7.88323 23.2761 7.63605 23.1796C5.8787 22.4941 4.3077 21.404 3.05052 19.9977C1.79334 18.5914 0.885394 16.9086 0.400345 15.0857C-0.0847046 13.2628 -0.133191 11.3513 0.25882 9.50617C0.650831 7.66105 1.4723 5.93433 2.65656 4.46611C3.84083 2.9979 5.35454 1.82954 7.07488 1.05585C8.79521 0.28216 10.6737 -0.0750765 12.558 0.0131276C14.4422 0.101332 16.2791 0.632492 17.9196 1.56351C19.5602 2.49453 20.9581 3.79918 22 5.37161V2.99761C22 2.73239 22.1054 2.47804 22.2929 2.2905C22.4805 2.10296 22.7348 1.99761 23 1.99761C23.2653 1.99761 23.5196 2.10296 23.7072 2.2905C23.8947 2.47804 24 2.73239 24 2.99761V2.99761Z" fill="#FBB659"/>
</svg>
