<svg width="80" height="80" viewBox="0 0 80 80" fill="none" xmlns="http://www.w3.org/2000/svg">
<rect width="80" height="80" rx="10" fill="#FDBB59"/>
<path d="M44.7498 31.292C43.8758 31.292 43.1665 30.5827 43.1665 29.7087V27.3337H36.8332V29.7087C36.8332 30.5827 36.1238 31.292 35.2498 31.292C34.3758 31.292 33.6665 30.5827 33.6665 29.7087V27.3337C33.6665 25.5872 35.0868 24.167 36.8332 24.167H43.1665C44.9129 24.167 46.3332 25.5872 46.3332 27.3337V29.7087C46.3332 30.5827 45.6238 31.292 44.7498 31.292Z" fill="#1C1F21"/>
<path d="M41.1242 45.3518C40.8392 45.4626 40.4275 45.5418 40 45.5418C39.5725 45.5418 39.1608 45.4626 38.7808 45.3201L21 39.3984V51.4793C21 53.8859 22.9475 55.8334 25.3542 55.8334H54.6458C57.0525 55.8334 59 53.8859 59 51.4793V39.3984L41.1242 45.3518Z" fill="#1C1F21"/>
<path d="M59 33.2712V36.897L40.38 43.1037C40.2533 43.1512 40.1267 43.167 40 43.167C39.8733 43.167 39.7467 43.1512 39.62 43.1037L21 36.897V33.2712C21 30.8645 22.9475 28.917 25.3542 28.917H54.6458C57.0525 28.917 59 30.8645 59 33.2712V33.2712Z" fill="#1C1F21"/>
</svg>
