<svg width="80" height="80" viewBox="0 0 80 80" fill="none" xmlns="http://www.w3.org/2000/svg">
<rect width="80" height="80" rx="10" fill="#FDBB59"/>
<path d="M52.3807 41.4355H47.8682V43.7415C48.3775 43.8439 48.7611 44.2935 48.7611 44.8328C48.7611 45.3723 48.3775 45.822 47.8682 45.924V50.8167H52.3807V41.4355Z" fill="#1C1F21"/>
<path d="M33.0981 39.0146C33.4046 39.2132 33.6075 39.5571 33.6075 39.949C33.6075 40.341 33.4046 40.6851 33.0981 40.8834V43.6217L34.8023 43.2474V36.7249L33.0981 36.3506V39.0146Z" fill="#1C1F21"/>
<path d="M30.8718 40.8835C30.5657 40.6852 30.3627 40.3411 30.3627 39.9491C30.3627 39.5574 30.5657 39.2133 30.8718 39.015V35.8616L29.168 35.4873V44.4855L30.8718 44.1112V40.8835Z" fill="#1C1F21"/>
<path d="M22.3902 24.3749C22.0565 24.2891 21.7028 24.3628 21.4308 24.5735C21.1592 24.7846 21 25.1093 21 25.4531V54.519C21 54.8632 21.1592 55.1879 21.4308 55.3987C21.6283 55.552 21.8689 55.6323 22.1133 55.6323C22.2058 55.6323 22.2985 55.621 22.3902 55.5975L39.9049 51.1027V28.8698L22.3902 24.3749ZM36.1545 45.2301L28.2934 46.9569C28.2143 46.9742 28.134 46.9829 28.0546 46.9829C27.8029 46.9829 27.5565 46.8977 27.3567 46.7371C27.0941 46.5257 26.9413 46.2068 26.9413 45.8697V34.1028C26.9413 33.7656 27.0941 33.4464 27.3567 33.2351C27.6197 33.0237 27.9647 32.9431 28.2934 33.0153L36.1545 34.7421C36.6651 34.8543 37.0289 35.3065 37.0289 35.8295V44.1429C37.0289 44.6656 36.6651 45.1182 36.1545 45.2301Z" fill="#1C1F21"/>
<path d="M57.8866 29.1553H42.1313V50.817H45.6414V40.3226C45.6414 39.708 46.14 39.2093 46.7547 39.2093H53.4938C54.1087 39.2093 54.6071 39.708 54.6071 40.3226V50.817H57.8866C58.5015 50.817 58.9999 50.3183 58.9999 49.7037V30.2686C58.9999 29.6536 58.5015 29.1553 57.8866 29.1553Z" fill="#1C1F21"/>
</svg>
